<svg xmlns="http://www.w3.org/2000/svg" width="92" height="92" viewBox="0 0 92 92"><defs><clipPath id="fgi1a"><path fill="#fff" d="M8.146 25.09h74.75L92 41.817H0zM0 92h92V41.816H0z"/></clipPath></defs><g><g><g><path fill="#fff" d="M8.146 25.09h74.75L92 41.817H0zM0 92h92V41.816H0z"/><path fill="none" stroke="#000" stroke-miterlimit="50" stroke-width="4" d="M8.146 25.09h74.75L92 41.817H0zM0 92h92V41.816H0z" clip-path="url(&quot;#fgi1a&quot;)"/></g><g/><g><path d="M21.762 17.445v-6.293H11.22v-3h10.542V0h3v8.151H45.72V0h3v8.151h20.958V0h3v8.151h9.459v3h-9.459v6.294h9.459v3h-9.459v12.08h-3v-12.08H48.72v12.08h-3v-12.08H24.762v12.08h-3v-12.08H11.22v-3zm3 0H45.72v-6.293H24.762zm23.958 0h20.958v-6.293H48.72z"/></g><g><path fill="#f6891f" d="M68.732 51.317l-2.625-2.067-1.895 2.263 2.625 2.067zm-38.159 2.631l-1.346-3.522-3.559 1.486zm-20.986-.051c-.53 0-.958.624-.958 1.393 0 .77.429 1.394.958 1.394.53 0 .958-.624.958-1.394 0-.77-.429-1.393-.958-1.393zm47.917 28.808c-.53 0-.959.624-.959 1.394 0 .77.43 1.393.959 1.393.529 0 .958-.624.958-1.393 0-.77-.43-1.394-.958-1.394zm22.903-4.595l-1.347-3.523-3.558 1.486zM7.46 83.508l4.905 2.036-1.347-3.522zm23.21-12.48l2.625 2.067 1.896-2.262-2.625-2.068z"/></g></g></g></svg>